# xmcd CD database file
#
# Track frame offsets:
#	150
#	32887
#	46522
#	61981
#	84617
#	98245
#	113610
#	132179
#	149686
#	167961
#	184253
#	198617
#	210481
#	222622
#	236426
#	248361
#	262390
#	282395
#	294034
#	312179
#
# Disc length: 4384 seconds
#
# Revision: 2
# Processed by: cddbd v1.5.2PL0 Copyright (c) Steve Scherf et al.
# Submitted via: CDex 1.50Beta7
#
DISCID=2f111e14
DTITLE=Die Hinichen - Gruppensex im Pensionistenheim
DYEAR=2002
DGENRE=Comedy
TTITLE0=Gruppensex im Pensionistenheim
TTITLE1=Der Ficker
TTITLE2=G'frett im Bett
TTITLE3=Kerzlschlicker
TTITLE4=Schonbezüge
TTITLE5=Präservativ-Rap
TTITLE6=Do speibst di au
TTITLE7=A Frau muaß her
TTITLE8=Die Votze meiner Frau
TTITLE9=Die Muschi von der Uschi
TTITLE10=Der Mann ohne Nerven
TTITLE11=Doppler Blues
TTITLE12=Hundswürstlsteiger
TTITLE13=Familie Prolo
TTITLE14=Am Pissoir
TTITLE15=I bin vernarrt in di
TTITLE16=Führt's die Alte nieder/Jeder Kibara...
TTITLE17=Jetzt hol i mia an obe
TTITLE18=Die Fut von meiner Frau
TTITLE19=Jeder Kibara (dancefloor-version)
EXTD=YEAR: 2002
EXTT0=
EXTT1=
EXTT2=
EXTT3=
EXTT4=
EXTT5=
EXTT6=
EXTT7=
EXTT8=
EXTT9=
EXTT10=
EXTT11=
EXTT12=
EXTT13=
EXTT14=
EXTT15=
EXTT16=
EXTT17=
EXTT18=
EXTT19=
PLAYORDER=
